<svg width="172" height="172" viewBox="0 0 172 172" fill="none" xmlns="http://www.w3.org/2000/svg">
<g opacity="0.1" filter="url(#filter0_bi_724_5642)">
<rect width="172" height="172" rx="20" fill="white"/>
</g>
<rect x="8" y="8" width="156" height="156" rx="14" fill="white"/>
<path d="M111.256 54.0945C107.39 54.0945 104.631 55.7681 102.086 59.4037L94.75 69.8664V40H77.25V69.8664L69.9138 59.4037C67.3729 55.7681 64.6141 54.0945 60.7435 54.0945C54.9051 54.0945 51.0192 58.3752 51.0001 63.6502C50.9848 68.1662 53.1284 71.1111 57.6485 74.0029L86 92.1429L114.351 74.0029C118.872 71.1111 121.015 68.1662 121 63.6502C120.985 58.3752 117.095 54.0945 111.256 54.0945V54.0945Z" fill="#0AAD0A"/>
<path d="M85.9999 96.4287C102.899 96.4287 116.752 109.042 116.714 127.143H55.2857C55.2512 109.05 69.1004 96.4287 85.9999 96.4287Z" fill="#FF7009"/>
<defs>
<filter id="filter0_bi_724_5642" x="-42" y="-42" width="256" height="256" filterUnits="userSpaceOnUse" color-interpolation-filters="sRGB">
<feFlood flood-opacity="0" result="BackgroundImageFix"/>
<feGaussianBlur in="BackgroundImageFix" stdDeviation="21"/>
<feComposite in2="SourceAlpha" operator="in" result="effect1_backgroundBlur_724_5642"/>
<feBlend mode="normal" in="SourceGraphic" in2="effect1_backgroundBlur_724_5642" result="shape"/>
<feColorMatrix in="SourceAlpha" type="matrix" values="0 0 0 0 0 0 0 0 0 0 0 0 0 0 0 0 0 0 127 0" result="hardAlpha"/>
<feOffset dx="425" dy="-5"/>
<feGaussianBlur stdDeviation="125"/>
<feComposite in2="hardAlpha" operator="arithmetic" k2="-1" k3="1"/>
<feColorMatrix type="matrix" values="0 0 0 0 1 0 0 0 0 1 0 0 0 0 1 0 0 0 0.02 0"/>
<feBlend mode="normal" in2="shape" result="effect2_innerShadow_724_5642"/>
</filter>
</defs>
</svg>
