<svg width="21" height="20" viewBox="0 0 21 20" fill="none" xmlns="http://www.w3.org/2000/svg">
<path d="M14.4545 8.11719H1.75972C0.909629 8.11719 0.201172 8.82564 0.201172 9.67573C0.201172 10.5258 0.909629 11.2343 1.75972 11.2343H14.4832C15.3333 11.2343 16.0418 10.5258 16.0418 9.67573C16.0135 8.79734 15.3333 8.11719 14.4549 8.11719H14.4545Z" fill="black"/>
<path d="M19.4127 0H1.75874C0.908652 0 0.200195 0.708457 0.200195 1.55855C0.200195 2.40864 0.908652 3.11709 1.75874 3.11709H19.4415C20.2915 3.11709 21 2.40864 21 1.55855C20.9715 0.708457 20.2915 0 19.413 0H19.4127Z" fill="black"/>
<path d="M19.4127 16.2344H1.75874C0.908652 16.2344 0.200195 16.9428 0.200195 17.7929C0.200195 18.643 0.908652 19.3515 1.75874 19.3515H19.4415C20.2915 19.3515 21 18.643 21 17.7929C20.9715 16.9428 20.2915 16.2344 19.413 16.2344H19.4127Z" fill="black"/>
</svg>
